<?xml version="1.0" encoding="UTF-8" standalone="no"?>
<svg
   xmlns:dc="http://purl.org/dc/elements/1.1/"
   xmlns:cc="http://creativecommons.org/ns#"
   xmlns:rdf="http://www.w3.org/1999/02/22-rdf-syntax-ns#"
   xmlns:svg="http://www.w3.org/2000/svg"
   xmlns="http://www.w3.org/2000/svg"
   xmlns:sodipodi="http://sodipodi.sourceforge.net/DTD/sodipodi-0.dtd"
   xmlns:inkscape="http://www.inkscape.org/namespaces/inkscape"
   viewBox="0 0 636 400"
   height="400"
   width="636"
   id="svg64"
   version="1.1"
   sodipodi:docname="iso_header_combined_vectorized.svg"
   inkscape:version="0.92.4 (5da689c313, 2019-01-14)">
  <sodipodi:namedview
     pagecolor="#ffffff"
     bordercolor="#666666"
     borderopacity="1"
     objecttolerance="10"
     gridtolerance="10"
     guidetolerance="10"
     inkscape:pageopacity="0"
     inkscape:pageshadow="2"
     inkscape:window-width="1920"
     inkscape:window-height="1016"
     id="namedview76"
     showgrid="false"
     inkscape:zoom="1.4877716"
     inkscape:cx="377.50162"
     inkscape:cy="198.66667"
     inkscape:window-x="1024"
     inkscape:window-y="27"
     inkscape:window-maximized="1"
     inkscape:current-layer="layer1" />
  <metadata
     id="metadata70">
    <rdf:RDF>
      <cc:Work
         rdf:about="">
        <dc:format>image/svg+xml</dc:format>
        <dc:type
           rdf:resource="http://purl.org/dc/dcmitype/StillImage" />
        <dc:title />
      </cc:Work>
    </rdf:RDF>
  </metadata>
  <defs
     id="defs68" />
  <g
     style="display:inline"
     id="layer3"
     transform="translate(0,2.6666565)">
    <rect
       y="164.07846"
       x="332.13861"
       height="84"
       width="84"
       id="rect4594"
       style="fill:#009999;fill-opacity:1;stroke:none;stroke-width:1.97647035;stroke-miterlimit:4;stroke-dasharray:none;stroke-dashoffset:0;stroke-opacity:1" />
  </g>
  <g
     style="display:inline"
     id="layer1"
     transform="translate(0,2.6666565)">
    <path
       id="path3779"
       d="M -2.7328549,248.33334 H 39.685806 V 82.698566 H 58.815791 V 59.885169 H 101.23445 V 248.33334 h 12.0008 V 118.9386 l 27.68501,-29.229667 27.68501,29.586127 v 129.03828 h 11.36187 V 97.3134 h 10.38215 V 34.220096 h 14.25837 V 14.020734 h 15.92185 v 20.437002 h 13.7831 V 97.3134 h 11.16906 v 151.01994 h 11.16905 V 127.13716 H 317 v 121.19618"
       style="fill:none;stroke:#a1a1a1;stroke-width:2;stroke-linecap:butt;stroke-linejoin:miter;stroke-miterlimit:4;stroke-dasharray:none;stroke-dashoffset:0;stroke-opacity:1"
       inkscape:connector-curvature="0"
       sodipodi:nodetypes="cccccccccccccccccccccccccccc" />
    <path
       id="path4607"
       d="m 51.448965,225.8764 h 15.743621 v 16.10008 H 51.508375 v -45.50797 h 15.684211 v 14.73365 H 47.349682 v -46.75559 h 19.961723 v 15.92186 h -15.86244 v -49.31021 h 15.92185 v 16.2189 H 47.290272 V 116.26515 H 66.004388 V 95.234053 H 50.973686 V 111.21531 H 91.194181 V 73.846493 H 79.074564 V 132.48405 H 95.352873 V 116.62161 H 75.45056 v 47.94378 H 95.352873 V 147.21771 H 79.074564 v 33.44776 h 12.000797 v 17.4071 H 76.519938 v -13.90191 h 19.129985 v 43.19099 H 76.816988 v -17.64474 h 9.208533 v 9.68381 h 51.848459 v 63.83581 H 123.00275 V 195.2694 h 14.53516 v 14.7032 h -19.91233 v -52.00731 h 40.32877 v -36.2959 H 124.5991 v 49.73882 h 34.86758 v 23.86119 h -16.29954 v -16.13151 h 20.16438 v 29.4064 h -14.61918 v 21.42466 h 13.27489 v -12.09864 h -17.39178 v 92.24932 h 60.96277 V 196.76556 h -16.99123 v 30.18022 h 23.05104 v -90.30303 h -23.4075 v 39.92344 h 17.46651 V 124.64195 H 192.72568 V 106.9378 h 17.46651 v 9.26794 h -9.26794 V 76.638758 h 14.25837 V 91.253591 H 195.45854 V 48.47847 h 12.71371 v 8.317384 h -7.48564 V 39.923446 h 25.30861 V 55.607657 H 215.30144 V 44.200958 h 14.49601 V 74.024722 H 215.30144 V 62.736843 h 10.45614 v 59.172247 h -9.26794 V 106.9378 h 20.79346 v 49.78549 H 223.14355 V 137.5933 h 9.6244 v 36.24004 h -9.26794 v 22.45694 h 15.92185 c 0,0 1.06937,-17.46651 0,-17.46651 h -21.14992 v 49.07257 h 21.14992 v -16.39713 h -16.04067 v 53.23126 h 42.18102 v -67.8461 h 19.60526 v 199.61724 h 24.41921 V 211.26157 h -16.93356 v 11.4067 h 13.18899 v -57.27114 h -18.6547 v 24.5957 h 23.40749 v -43.8445 h -43.84449 v 16.87241 h 18.0606 v -16.99123"
       style="fill:none;fill-opacity:1;fill-rule:evenodd;stroke:#a1a1a1;stroke-width:1px;stroke-linecap:butt;stroke-linejoin:miter;stroke-opacity:1"
       inkscape:connector-curvature="0" />
  </g>
  <g
     id="layer5"
     transform="translate(0,2.6666565)">
    <text
       id="text4613"
       y="240.48274"
       x="368.61453"
       style="font-style:normal;font-variant:normal;font-weight:normal;font-stretch:normal;font-size:40px;line-height:1.25;font-family:serif;-inkscape-font-specification:serif;letter-spacing:-0.20999999px;word-spacing:0px;opacity:0.95;fill:#ffffff;fill-opacity:1;stroke:none;stroke-opacity:1"
       xml:space="preserve"><tspan
         style="font-style:normal;font-variant:normal;font-weight:normal;font-stretch:normal;font-size:29.33333397px;line-height:1.25;font-family:serif;-inkscape-font-specification:serif;letter-spacing:-0.20999999px;fill:#ffffff;fill-opacity:1;stroke:none;stroke-opacity:1"
         id="tspan4615"
         y="240.48274"
         x="368.61453">iso</tspan></text>
    <text
       id="text4613-1"
       y="240.48274"
       x="420.20486"
       style="font-style:normal;font-variant:normal;font-weight:normal;font-stretch:normal;font-size:40px;line-height:1.25;font-family:serif;-inkscape-font-specification:serif;letter-spacing:-0.92000002px;word-spacing:0px;opacity:0.95;fill:#a1a1a1;fill-opacity:1;stroke:none;stroke-opacity:1"
       xml:space="preserve"><tspan
         dx="0 0 0 0 0 0 0 0 -1.01"
         dy="0 0 0 0 0 0 0 0 0"
         id="tspan4651"
         style="font-style:normal;font-variant:normal;font-weight:normal;font-stretch:normal;font-size:29.33333397px;line-height:1.25;font-family:serif;-inkscape-font-specification:serif;letter-spacing:-0.92000002px;fill:#a1a1a1;fill-opacity:1;stroke:none;stroke-opacity:1"
         y="240.48274"
         x="420.20486">property corp</tspan></text>
  </g>
</svg>
